<svg xmlns="http://www.w3.org/2000/svg" viewBox="0 0 138.32 79.94"><defs><style>.cls-1{fill:#32e0c4;}</style></defs><title>Recurso 19</title><g id="Capa_2" data-name="Capa 2"><g id="Capa_1-2" data-name="Capa 1"><path class="cls-1" d="M90.1,38.68a7.43,7.43,0,1,1-8.58-6.06A7.42,7.42,0,0,1,90.1,38.68Z"/><path class="cls-1" d="M59.6,36.76a5.54,5.54,0,1,1-6.39-4.52A5.54,5.54,0,0,1,59.6,36.76Z"/><path class="cls-1" d="M73.89,27.48a3.48,3.48,0,1,1-4-2.84A3.48,3.48,0,0,1,73.89,27.48Z"/><path class="cls-1" d="M35.64,49.22a30.68,30.68,0,0,1,0-3.43,1,1,0,0,0-.6-.95L33,44c-2.66-1.15-4-1.16-4.22-1.08l-1.39.69c-.78.37-3.41,1.43-5.44-.18-1.36-1.07-1.86-2.83-1.49-5.22L20.66,37l.3-1a6.06,6.06,0,0,1,2.42-3.44c2.33-1.41,4.86,0,6.23,1.86l.93,1.27s.7.54,4.26.8l1.67.13a1,1,0,0,0,.85-.35A.9.9,0,0,0,37.5,36a33.07,33.07,0,0,1,1.63-3.76,3.46,3.46,0,0,0,.35-.89l0,0c-.13-.09-.23-.14-.28-.17l-1.28.08c-.56,0-3.47.1-4.74-2.19-.91-1.62-.53-3.62,1.12-5.93l.19-.25a8.46,8.46,0,0,1,2.27-2.16,4,4,0,0,1,3.69-.38,5.45,5.45,0,0,1,2.8,3.66l.32,1.27.14.13a3.59,3.59,0,0,0,.63-.54,34.62,34.62,0,0,1,3-2.84,1,1,0,0,0,.31-1.15l-.46-1.13a21.09,21.09,0,0,0-.83-2l-.23-.07-1.51-.53c-.31-.1-3.38-1.16-3.71-4-.2-1.69.68-3.27,2.59-4.68l1.06-.71.93-.5c2.2-1.08,4-1.12,5.42-.17,1.72,1.19,2.06,3.44,1.8,5.15l-.23,1.57c0,.09,0,.17,0,.24.17.27.77,1,1.35,1.63l.79,1a1,1,0,0,0,1.15.26,31.77,31.77,0,0,1,4.08-1.4,1,1,0,0,0,.62-.51.9.9,0,0,0,.07-.72l-1-.86a5.41,5.41,0,0,1-1.94-4.18,4,4,0,0,1,2-3.09,7.18,7.18,0,0,1,2-.81l1.24-.25,1-.1c2.3-.11,3.88.52,4.77,1.88a5,5,0,0,1-.28,5.21l-.67,1.11a2.69,2.69,0,0,0,0,.34,1,1,0,0,0,1,.87,32.67,32.67,0,0,1,4,.3,1,1,0,0,0,1-.61l.65-1.55c1.38-3.17,1.09-4.06,1.09-4.07L74.75,7c-1.06-2.16-1.08-5,1.23-6.36A6.11,6.11,0,0,1,80.12.11l.46.09L81.9.52l.45.14c2.31.79,3.61,2,3.94,3.71.53,2.8-2.09,4.73-2.39,4.94l-1.24.92s-.57.69-.81,4.12l-.2,2.16a1,1,0,0,0,.59,1,32.77,32.77,0,0,1,3.28,1.79,1,1,0,0,0,1.27-.2,13.56,13.56,0,0,0,1.41-2l-.06-1.21c0-.29-.2-3.28,2.06-4.65,1.64-1,3.65-.66,6,1l.09.06a1.77,1.77,0,0,1,.23.19c2,1.51,2.9,3,2.81,4.69a4.05,4.05,0,0,1-2.12,3.3,6.86,6.86,0,0,1-1.72.73l-.11,0L94,21.55l-.07,0c-.35.53-1.09,1.74-1.49,2.48a1,1,0,0,0,.15,1.14c.71.8,1.36,1.6,1.94,2.39a2.06,2.06,0,0,0,1.43.63l.83-.34c.83-.33,1.5-.59,1.8-.76l.08-.23.52-1.51a6.29,6.29,0,0,1,2.38-3.16c.77-.46,3.5-1.7,6.28,2l.73,1.06.49.94c2,4.24-.3,6.09-1.07,6.56a6.25,6.25,0,0,1-3.94.64l-1.54-.22-.24,0a19.26,19.26,0,0,0-1.65,1.34L100,35a1.93,1.93,0,0,0-.35,1.67q.54,1.35,1,2.79a1,1,0,0,0,.95.73h0c1.08,0,5.42-.42,6.66-.6l0,0,1-1.1a7.32,7.32,0,0,1,1.49-1.24,4.07,4.07,0,0,1,4-.35c1.5.69,2.44,2.26,2.85,4.78v.07a.76.76,0,0,1,0,.21c.49,3.52-.75,5.09-1.89,5.78a5,5,0,0,1-5.11-.36l-1-.58a54,54,0,0,0-6.88,1,1,1,0,0,0-.72,1v.39l-3,0v-.35A4,4,0,0,1,102,44.88c.08,0,7.6-1.63,8.93-.84l1.24.76c.5.3,1.49.67,2,.35.3-.18.77-.79.48-2.82l0-.15v-.13c-.25-1.38-.65-2.22-1.15-2.45a1.19,1.19,0,0,0-1.12.2,4,4,0,0,0-.81.67l-1,1.09a3.61,3.61,0,0,1-.84.74c-.81.49-8,.91-8.1.91h0a4,4,0,0,1-3.82-2.87c-.27-.86-.57-1.71-.9-2.52a4.79,4.79,0,0,1,1.17-5.07l.54-.48a18.5,18.5,0,0,1,2.08-1.66,2.93,2.93,0,0,1,2.22-.35l1.57.23a3.34,3.34,0,0,0,1.91-.25c.63-.38.62-1.27-.05-2.64l-.42-.8-.55-.8c-.88-1.18-1.66-1.6-2.29-1.22A3.17,3.17,0,0,0,102,26.37l-.51,1.48a2.93,2.93,0,0,1-1.34,1.81,17.2,17.2,0,0,1-2.27,1L97,31a4.64,4.64,0,0,1-4.93-1.63c-.53-.72-1.12-1.45-1.77-2.18a4,4,0,0,1-.55-4.56c.39-.74,1.74-3.18,2.44-3.6a3.42,3.42,0,0,1,1-.39l1.4-.35a4.11,4.11,0,0,0,1-.41c.44-.27.67-.57.68-.89,0-.58-.57-1.36-1.7-2.21l-.12-.1c-1.61-1.16-2.38-1.14-2.75-.91-.54.33-.65,1.43-.62,1.88l.08,1.49c.08,1.28-1.92,3.65-2.14,3.92a4,4,0,0,1-5.14.79,28,28,0,0,0-3-1.63,4,4,0,0,1-2.28-4l.19-2.14c.25-3.54.85-5.43,2-6.29l1.27-.94c.32-.23,1.35-1.14,1.2-1.94-.11-.54-.75-1-1.91-1.43l-.32-.09L80,3.14l-.38-.08a3.3,3.3,0,0,0-2.06.19c-1,.6-.11,2.45-.1,2.47l.7,1.42c.41.86.74,2.45-1,6.55l-.64,1.52a4,4,0,0,1-4.21,2.43,30.45,30.45,0,0,0-3.63-.27,4,4,0,0,1-3.89-3.56,3.24,3.24,0,0,1,.33-2.09l.73-1.22c.22-.37.71-1.44.34-2s-1.29-.56-2-.52L63.27,8l-1,.21a4.06,4.06,0,0,0-1.15.45c-.56.34-.59.67-.6.78a2.65,2.65,0,0,0,.93,1.67l1.11,1a2.66,2.66,0,0,1,.69,1.1A3.92,3.92,0,0,1,63,16.36a4,4,0,0,1-2.5,2,32.55,32.55,0,0,0-3.71,1.27,4,4,0,0,1-4.59-1.09c-.42-.5-.77-.92-.78-.92-1.85-2.14-2.24-2.59-2-4.25l.23-1.59c.08-.47.12-1.79-.52-2.23s-1.59,0-2.35.35l-.82.45-.81.55c-.63.46-1.43,1.21-1.35,1.89s1.35,1.37,1.68,1.48l1.54.53c1.59.54,1.81,1.09,2.87,3.75l.45,1.11a4,4,0,0,1-1.17,4.59,34.57,34.57,0,0,0-2.72,2.58,4,4,0,0,1-2.87,1.49h0a3.07,3.07,0,0,1-2.32-1.13A2.43,2.43,0,0,1,40.64,26l-.34-1.36a2.54,2.54,0,0,0-1-1.62,1,1,0,0,0-1,.17,5.86,5.86,0,0,0-1.49,1.48l-.14.19c-.46.65-1.26,2-.87,2.65s1.53.68,1.92.65l1.46-.08a3.17,3.17,0,0,1,2,.7c1.52,1,1.75,2.61.66,4.75A29.44,29.44,0,0,0,40.33,37a4,4,0,0,1-.72,1.23,3.9,3.9,0,0,1-3.38,1.41l-1.65-.13c-3.72-.27-5.59-.85-6.45-2l-.95-1.29S26,34.51,24.94,35.12a3.35,3.35,0,0,0-1.12,1.8l-.27.88-.17.9c-.19,1.19-.06,2,.38,2.36s1.74.09,2.28-.17l1.41-.69c1.36-.66,3.61-.31,6.7,1l2,.84a4,4,0,0,1,2.47,3.84,30,30,0,0,0,0,3.12Zm79-7.08h0ZM43.56,25.32v0A.06.06,0,0,1,43.56,25.32Zm-6.82-.56-.07.09ZM88.22,17.3v0ZM60.57,14.36h0Zm7.07-1.09,0,0Z"/><path class="cls-1" d="M9.57,51.83H110.74c4.66,0,9.36.19,14,0H125a1.5,1.5,0,0,0,0-3H23.79c-4.66,0-9.36-.18-14,0a1.34,1.34,0,0,1-.2,0,1.5,1.5,0,0,0,0,3Z"/><path class="cls-1" d="M9.57,79.86H110.74c4.66,0,9.36.18,14,0a1.47,1.47,0,0,1,.21,0,1.5,1.5,0,0,0,0-3H23.79c-4.66,0-9.36-.19-14,0h-.2a1.5,1.5,0,0,0,0,3Z"/><path class="cls-1" d="M4.56,71.38a7.58,7.58,0,0,1-2.36-1.6A6.85,6.85,0,0,1,.6,67.4,7.17,7.17,0,0,1,0,64.5a7.44,7.44,0,0,1,10.8-6.64,7.32,7.32,0,0,1,2.62,2.2l.32.4L11.6,62l-.3-.4a4.72,4.72,0,0,0-3.84-1.92A4.8,4.8,0,1,0,11.3,67.4l.3-.38,2.12,1.56-.32.4a7.37,7.37,0,0,1-5.94,3A7.58,7.58,0,0,1,4.56,71.38Z"/><path class="cls-1" d="M24.44,71.74v-6.9H18.66v6.9H16V57.5h2.68v4.72h5.78V57.5h2.68V71.74Z"/><path class="cls-1" d="M39.34,71.74,37.88,67.9H33.16l-1.48,3.84H28.82L34.3,57.5h2.42l5.5,14.24Zm-2.5-6.48L35.52,61.8,34.2,65.26Z"/><path class="cls-1" d="M52.36,71.74l-5.06-7H46.16v7h-2.6V57.5h5.1a3.69,3.69,0,0,1,3.64,3.64,3.69,3.69,0,0,1-2.08,3.3l5.3,7.3Zm-3.7-9.56a1,1,0,1,0,0-2.08h-2.5v2.08Z"/><path class="cls-1" d="M58.5,71.74V60.14H55V57.5h9.68v2.64h-3.5v11.6Z"/><path class="cls-1" d="M66.22,68.32V66h6.26v2.32Z"/><path class="cls-1" d="M78.72,71.38a7.58,7.58,0,0,1-2.36-1.6,6.85,6.85,0,0,1-1.6-2.38,7.17,7.17,0,0,1-.6-2.9A7.44,7.44,0,0,1,85,57.86a7.32,7.32,0,0,1,2.62,2.2l.32.4L85.76,62l-.3-.4a4.72,4.72,0,0,0-3.84-1.92,4.8,4.8,0,1,0,3.84,7.68l.3-.38,2.12,1.56-.32.4a7.37,7.37,0,0,1-5.94,3A7.58,7.58,0,0,1,78.72,71.38Z"/><path class="cls-1" d="M89.32,64.52a7.45,7.45,0,1,1,7.44,7.42A7.46,7.46,0,0,1,89.32,64.52Zm2.68,0a4.76,4.76,0,1,0,4.76-4.8A4.78,4.78,0,0,0,92,64.52Z"/><path class="cls-1" d="M109.76,71.74l-5.5-14.24h2.88L111,67.44l3.84-9.94h2.86l-5.48,14.24Z"/><path class="cls-1" d="M120.06,71.74V57.5h2.68V71.74Z"/><path class="cls-1" d="M126.24,71.74V57.5H131a7.12,7.12,0,1,1,0,14.24ZM131,69.12a4.5,4.5,0,1,0,0-9H128.9v9Z"/></g></g></svg>